<svg version="1.1" id="Layer_1" xmlns="http://www.w3.org/2000/svg" xmlns:xlink="http://www.w3.org/1999/xlink" x="0px" y="0px"
	 width="100%" viewBox="0 0 1015 391" enable-background="new 0 0 1015 391" xml:space="preserve">
<path fill="#000000" opacity="1.000000" stroke="none" 
	d="
M646.000000,392.000000 
	C430.666656,392.000000 215.833328,392.000000 1.000000,392.000000 
	C1.000000,261.666656 1.000000,131.333328 1.000000,1.000000 
	C339.333344,1.000000 677.666687,1.000000 1016.000000,1.000000 
	C1016.000000,131.333328 1016.000000,261.666656 1016.000000,392.000000 
	C892.833313,392.000000 769.666687,392.000000 646.000000,392.000000 
M464.512665,281.509247 
	C473.965698,281.509247 483.418701,281.509247 492.918579,281.509247 
	C492.918579,224.693359 492.918579,168.435791 492.918579,111.830772 
	C481.707733,111.830772 470.740387,111.674591 459.785065,111.967346 
	C457.685883,112.023438 455.056671,113.336952 453.649109,114.932396 
	C438.890625,131.661148 424.333588,148.567581 409.714386,165.419296 
	C407.158813,168.365112 404.573517,171.285141 401.880768,174.355225 
	C386.284027,156.346451 370.678467,139.216492 356.199127,121.182343 
	C350.198517,113.708504 343.942139,110.833908 334.709869,111.681656 
	C326.855713,112.402863 318.882782,111.830597 311.185272,111.830597 
	C311.185272,168.757416 311.185272,224.986755 311.185272,281.202179 
	C325.291870,281.202179 339.041809,281.202179 353.266113,281.202179 
	C353.266113,246.210876 353.266113,211.524841 353.266113,176.047241 
	C367.974945,193.133179 382.076752,209.531647 396.201874,225.909988 
	C399.923706,230.225525 403.963196,230.200623 407.751373,225.809586 
	C421.130432,210.301224 434.485443,194.772079 447.812439,179.218994 
	C448.515472,178.398575 448.877319,177.285889 449.397980,176.309250 
	C449.919769,176.629608 450.441528,176.949951 450.963318,177.270309 
	C450.963318,211.927673 450.963318,246.585037 450.963318,281.509216 
	C455.553772,281.509216 459.536194,281.509216 464.512665,281.509247 
M527.985046,281.514618 
	C529.817261,281.514557 531.649963,281.542816 533.481628,281.510254 
	C561.432739,281.013763 589.438538,281.407715 617.316040,279.703491 
	C637.227417,278.486237 655.371704,270.869446 670.429810,257.004272 
	C698.774658,230.904907 700.986084,178.493591 679.516968,147.927124 
	C662.572266,123.802170 638.046204,113.420753 609.744202,112.237595 
	C582.143677,111.083755 554.461060,111.894112 526.814453,111.864624 
	C526.368713,111.864143 525.922729,112.150551 525.161987,112.410782 
	C525.161987,114.054794 525.161987,115.688042 525.161987,117.321289 
	C525.161987,141.472610 525.161987,165.623932 525.161987,189.775253 
	C525.161987,218.756836 525.131775,247.738541 525.243347,276.719696 
	C525.249451,278.314789 526.433411,279.905365 527.985046,281.514618 
M149.134186,155.644470 
	C132.326660,197.417297 115.519150,239.190140 98.490440,281.512695 
	C112.666588,281.512695 125.967262,281.359528 139.260086,281.614838 
	C142.811813,281.683075 144.085754,280.337280 145.183121,277.257812 
	C148.682068,267.438965 152.514130,257.738800 156.275742,247.839630 
	C180.784073,247.839630 205.091843,247.793808 229.397919,247.974380 
	C230.618546,247.983444 232.370331,249.714706 232.949310,251.046463 
	C236.853638,260.027069 240.572815,269.090485 244.201035,278.187286 
	C245.199127,280.689789 246.536163,281.636017 249.349884,281.592041 
	C261.173462,281.407104 273.001648,281.513885 284.828125,281.513885 
	C286.875916,281.513885 288.923706,281.513885 291.032043,281.513885 
	C290.914917,280.529144 290.934540,280.347046 290.870209,280.202148 
	C266.376495,225.029495 241.899399,169.849350 217.250854,114.745926 
	C216.622925,113.342117 214.123001,111.980141 212.474380,111.953690 
	C198.652603,111.732010 184.824234,111.937195 171.001572,111.745293 
	C167.819199,111.701111 166.318298,112.713051 165.176590,115.642113 
	C160.052933,128.786819 154.700775,141.842468 149.134186,155.644470 
M918.518311,208.500275 
	C918.518311,171.916748 918.518311,135.333221 918.518311,98.811447 
	C853.535217,98.811447 789.308472,98.811447 724.436523,98.811447 
	C725.908875,100.378616 726.885864,101.476204 727.922974,102.513756 
	C743.474915,118.071625 758.967773,133.690033 774.686829,149.077301 
	C776.435730,150.789261 779.476196,152.024384 781.929443,152.044495 
	C807.759705,152.256073 833.592468,152.175415 859.424500,152.175446 
	C861.193298,152.175446 862.962097,152.175430 864.994141,152.175430 
	C864.994141,154.581268 864.994202,156.394699 864.994202,158.208115 
	C864.994263,183.873489 864.914185,209.539536 865.123291,235.203201 
	C865.143250,237.658142 866.344238,240.707458 868.049927,242.450180 
	C883.436096,258.170502 899.054626,273.663391 914.615967,289.212036 
	C915.616882,290.212128 916.707886,291.122040 918.518250,292.764709 
	C918.518250,264.372467 918.518250,236.936386 918.518311,208.500275 
M777.839417,207.500076 
	C777.839417,192.809998 777.839417,178.119934 777.839417,162.708710 
	C776.573059,163.750137 776.035095,164.122208 775.579834,164.577042 
	C758.735535,181.405487 741.851624,198.195114 725.147217,215.161438 
	C723.750854,216.579697 722.941284,219.189941 722.923462,221.255630 
	C722.757629,240.402679 722.825745,259.551788 722.825806,278.700287 
	C722.825867,283.825806 722.825806,288.951324 722.825806,294.033661 
	C723.721558,294.257477 724.193848,294.478302 724.666443,294.478790 
	C748.810059,294.502258 772.953918,294.557892 797.096558,294.404572 
	C798.794617,294.393799 800.844116,293.189667 802.121094,291.925262 
	C818.804443,275.407166 835.381470,258.781616 851.966431,242.164307 
	C852.695007,241.434311 853.242920,240.523895 854.455872,238.937943 
	C828.328369,238.937943 803.146423,238.937943 777.839417,238.937943 
	C777.839417,228.465240 777.839417,218.482666 777.839417,207.500076 
z"/>
<path fill="#FEFEFE" opacity="1.000000" stroke="none" 
	d="
M464.015625,281.509216 
	C459.536194,281.509216 455.553772,281.509216 450.963318,281.509216 
	C450.963318,246.585037 450.963318,211.927673 450.963318,177.270309 
	C450.441528,176.949951 449.919769,176.629608 449.397980,176.309250 
	C448.877319,177.285889 448.515472,178.398575 447.812439,179.218994 
	C434.485443,194.772079 421.130432,210.301224 407.751373,225.809586 
	C403.963196,230.200623 399.923706,230.225525 396.201874,225.909988 
	C382.076752,209.531647 367.974945,193.133179 353.266113,176.047241 
	C353.266113,211.524841 353.266113,246.210876 353.266113,281.202179 
	C339.041809,281.202179 325.291870,281.202179 311.185272,281.202179 
	C311.185272,224.986755 311.185272,168.757416 311.185272,111.830597 
	C318.882782,111.830597 326.855713,112.402863 334.709869,111.681656 
	C343.942139,110.833908 350.198517,113.708504 356.199127,121.182343 
	C370.678467,139.216492 386.284027,156.346451 401.880768,174.355225 
	C404.573517,171.285141 407.158813,168.365112 409.714386,165.419296 
	C424.333588,148.567581 438.890625,131.661148 453.649109,114.932396 
	C455.056671,113.336952 457.685883,112.023438 459.785065,111.967346 
	C470.740387,111.674591 481.707733,111.830772 492.918579,111.830772 
	C492.918579,168.435791 492.918579,224.693359 492.918579,281.509247 
	C483.418701,281.509247 473.965698,281.509247 464.015625,281.509216 
z"/>
<path fill="#FDFDFD" opacity="1.000000" stroke="none" 
	d="
M527.527100,281.506348 
	C526.433411,279.905365 525.249451,278.314789 525.243347,276.719696 
	C525.131775,247.738541 525.161987,218.756836 525.161987,189.775253 
	C525.161987,165.623932 525.161987,141.472610 525.161987,117.321289 
	C525.161987,115.688042 525.161987,114.054794 525.161987,112.410782 
	C525.922729,112.150551 526.368713,111.864143 526.814453,111.864624 
	C554.461060,111.894112 582.143677,111.083755 609.744202,112.237595 
	C638.046204,113.420753 662.572266,123.802170 679.516968,147.927124 
	C700.986084,178.493591 698.774658,230.904907 670.429810,257.004272 
	C655.371704,270.869446 637.227417,278.486237 617.316040,279.703491 
	C589.438538,281.407715 561.432739,281.013763 533.481628,281.510254 
	C531.649963,281.542816 529.817261,281.514557 527.527100,281.506348 
M631.073547,153.366974 
	C627.296997,151.301407 623.693359,148.789825 619.713867,147.247849 
	C602.898499,140.732117 585.339417,143.636612 568.110413,142.981308 
	C568.110413,178.964737 568.110413,214.337677 568.110413,249.829788 
	C579.673767,249.829788 591.012817,250.495392 602.245117,249.683701 
	C622.262878,248.237122 637.958130,239.470795 645.778381,219.993942 
	C651.287231,206.273804 651.484131,192.052170 647.585815,177.887527 
	C644.924255,168.216537 639.842285,159.925247 631.073547,153.366974 
z"/>
<path fill="#FDFDFD" opacity="1.000000" stroke="none" 
	d="
M149.282623,155.287354 
	C154.700775,141.842468 160.052933,128.786819 165.176590,115.642113 
	C166.318298,112.713051 167.819199,111.701111 171.001572,111.745293 
	C184.824234,111.937195 198.652603,111.732010 212.474380,111.953690 
	C214.123001,111.980141 216.622925,113.342117 217.250854,114.745926 
	C241.899399,169.849350 266.376495,225.029495 290.870209,280.202148 
	C290.934540,280.347046 290.914917,280.529144 291.032043,281.513885 
	C288.923706,281.513885 286.875916,281.513885 284.828125,281.513885 
	C273.001648,281.513885 261.173462,281.407104 249.349884,281.592041 
	C246.536163,281.636017 245.199127,280.689789 244.201035,278.187286 
	C240.572815,269.090485 236.853638,260.027069 232.949310,251.046463 
	C232.370331,249.714706 230.618546,247.983444 229.397919,247.974380 
	C205.091843,247.793808 180.784073,247.839630 156.275742,247.839630 
	C152.514130,257.738800 148.682068,267.438965 145.183121,277.257812 
	C144.085754,280.337280 142.811813,281.683075 139.260086,281.614838 
	C125.967262,281.359528 112.666588,281.512695 98.490440,281.512695 
	C115.519150,239.190140 132.326660,197.417297 149.282623,155.287354 
M188.500214,218.000412 
	C198.562302,218.000412 208.624390,218.000412 219.193481,218.000412 
	C210.141098,196.197815 201.358063,175.043991 192.119247,152.792389 
	C183.710098,175.080002 175.715225,196.269653 167.516190,218.000412 
	C174.599457,218.000412 181.049957,218.000412 188.500214,218.000412 
z"/>
<path fill="#FCFCFC" opacity="1.000000" stroke="none" 
	d="
M918.518311,209.000275 
	C918.518250,236.936386 918.518250,264.372467 918.518250,292.764709 
	C916.707886,291.122040 915.616882,290.212128 914.615967,289.212036 
	C899.054626,273.663391 883.436096,258.170502 868.049927,242.450180 
	C866.344238,240.707458 865.143250,237.658142 865.123291,235.203201 
	C864.914185,209.539536 864.994263,183.873489 864.994202,158.208115 
	C864.994202,156.394699 864.994141,154.581268 864.994141,152.175430 
	C862.962097,152.175430 861.193298,152.175446 859.424500,152.175446 
	C833.592468,152.175415 807.759705,152.256073 781.929443,152.044495 
	C779.476196,152.024384 776.435730,150.789261 774.686829,149.077301 
	C758.967773,133.690033 743.474915,118.071625 727.922974,102.513756 
	C726.885864,101.476204 725.908875,100.378616 724.436523,98.811447 
	C789.308472,98.811447 853.535217,98.811447 918.518311,98.811447 
	C918.518311,135.333221 918.518311,171.916748 918.518311,209.000275 
z"/>
<path fill="#FCFCFC" opacity="1.000000" stroke="none" 
	d="
M777.839417,208.000092 
	C777.839417,218.482666 777.839417,228.465240 777.839417,238.937943 
	C803.146423,238.937943 828.328369,238.937943 854.455872,238.937943 
	C853.242920,240.523895 852.695007,241.434311 851.966431,242.164307 
	C835.381470,258.781616 818.804443,275.407166 802.121094,291.925262 
	C800.844116,293.189667 798.794617,294.393799 797.096558,294.404572 
	C772.953918,294.557892 748.810059,294.502258 724.666443,294.478790 
	C724.193848,294.478302 723.721558,294.257477 722.825806,294.033661 
	C722.825806,288.951324 722.825867,283.825806 722.825806,278.700287 
	C722.825745,259.551788 722.757629,240.402679 722.923462,221.255630 
	C722.941284,219.189941 723.750854,216.579697 725.147217,215.161438 
	C741.851624,198.195114 758.735535,181.405487 775.579834,164.577042 
	C776.035095,164.122208 776.573059,163.750137 777.839417,162.708710 
	C777.839417,178.119934 777.839417,192.809998 777.839417,208.000092 
z"/>
<path fill="#010101" opacity="1.000000" stroke="none" 
	d="
M631.348572,153.598175 
	C639.842285,159.925247 644.924255,168.216537 647.585815,177.887527 
	C651.484131,192.052170 651.287231,206.273804 645.778381,219.993942 
	C637.958130,239.470795 622.262878,248.237122 602.245117,249.683701 
	C591.012817,250.495392 579.673767,249.829788 568.110413,249.829788 
	C568.110413,214.337677 568.110413,178.964737 568.110413,142.981308 
	C585.339417,143.636612 602.898499,140.732117 619.713867,147.247849 
	C623.693359,148.789825 627.296997,151.301407 631.348572,153.598175 
z"/>
<path fill="#020202" opacity="1.000000" stroke="none" 
	d="
M188.000336,218.000412 
	C181.049957,218.000412 174.599457,218.000412 167.516190,218.000412 
	C175.715225,196.269653 183.710098,175.080002 192.119247,152.792389 
	C201.358063,175.043991 210.141098,196.197815 219.193481,218.000412 
	C208.624390,218.000412 198.562302,218.000412 188.000336,218.000412 
z"/>
</svg>