<svg version="1.1" id="Layer_1" xmlns="http://www.w3.org/2000/svg" xmlns:xlink="http://www.w3.org/1999/xlink" x="0px" y="0px"
	 width="100%" viewBox="0 0 210 210" enable-background="new 0 0 210 210" xml:space="preserve">
<path fill="#FCFCFC" opacity="1.000000" stroke="none" 
	d="
M123.000000,211.000000 
	C82.000000,211.000000 41.500004,211.000000 1.000005,211.000000 
	C1.000004,141.000000 1.000004,71.000015 1.000002,1.000015 
	C70.999992,1.000010 140.999985,1.000010 210.999969,1.000005 
	C210.999985,70.999985 210.999985,140.999969 211.000000,210.999969 
	C181.833328,211.000000 152.666672,211.000000 123.000000,211.000000 
M202.339020,183.499069 
	C202.339020,125.283203 202.339020,67.067337 202.339020,9.080025 
	C137.486984,9.080025 73.365379,9.080025 8.622771,9.080025 
	C25.605059,26.079453 42.001869,42.617619 58.613529,58.937080 
	C60.363216,60.655987 63.370663,61.961090 65.806892,61.981411 
	C91.790916,62.198105 117.777443,62.116516 143.763275,62.116852 
	C145.378143,62.116871 146.993027,62.116852 149.006134,62.116852 
	C149.006134,64.360214 149.006104,66.157455 149.006134,67.954704 
	C149.006439,93.773964 148.935974,119.593758 149.128494,145.411591 
	C149.145691,147.715698 150.287186,150.578690 151.892212,152.215652 
	C167.400803,168.032822 183.117310,183.646164 198.787827,199.304306 
	C199.728378,200.244125 200.783493,201.069290 202.339035,202.433411 
	C202.339035,195.815704 202.339035,190.156937 202.339020,183.499069 
M82.500168,149.251907 
	C75.718277,149.251907 68.936386,149.251907 61.723503,149.251907 
	C61.723503,123.780396 61.723503,98.761757 61.723503,73.120354 
	C60.636147,73.895889 60.076572,74.188446 59.650303,74.614403 
	C42.684822,91.567551 25.696838,108.498657 8.849977,125.569023 
	C7.656588,126.778236 6.972528,129.020828 6.963267,130.787689 
	C6.841048,154.106354 6.878868,177.425858 6.894298,200.745163 
	C6.895041,201.868942 7.059381,202.992630 7.165403,204.344116 
	C32.027790,204.344116 56.651218,204.395279 81.273224,204.231918 
	C82.960335,204.220718 84.981865,202.952621 86.265915,201.681274 
	C102.836449,185.274689 119.304840,168.764877 135.780701,152.262863 
	C136.514633,151.527771 137.073212,150.617569 138.128387,149.251907 
	C119.393059,149.251907 101.446617,149.251907 82.500168,149.251907 
z"/>
<path fill="#000000" opacity="1.000000" stroke="none" 
	d="
M202.339020,183.998611 
	C202.339035,190.156937 202.339035,195.815704 202.339035,202.433411 
	C200.783493,201.069290 199.728378,200.244125 198.787827,199.304306 
	C183.117310,183.646164 167.400803,168.032822 151.892212,152.215652 
	C150.287186,150.578690 149.145691,147.715698 149.128494,145.411591 
	C148.935974,119.593758 149.006439,93.773964 149.006134,67.954704 
	C149.006104,66.157455 149.006134,64.360214 149.006134,62.116852 
	C146.993027,62.116852 145.378143,62.116871 143.763275,62.116852 
	C117.777443,62.116516 91.790916,62.198105 65.806892,61.981411 
	C63.370663,61.961090 60.363216,60.655987 58.613529,58.937080 
	C42.001869,42.617619 25.605059,26.079453 8.622771,9.080025 
	C73.365379,9.080025 137.486984,9.080025 202.339020,9.080025 
	C202.339020,67.067337 202.339020,125.283203 202.339020,183.998611 
z"/>
<path fill="#020202" opacity="1.000000" stroke="none" 
	d="
M83.000175,149.251907 
	C101.446617,149.251907 119.393059,149.251907 138.128387,149.251907 
	C137.073212,150.617569 136.514633,151.527771 135.780701,152.262863 
	C119.304840,168.764877 102.836449,185.274689 86.265915,201.681274 
	C84.981865,202.952621 82.960335,204.220718 81.273224,204.231918 
	C56.651218,204.395279 32.027790,204.344116 7.165403,204.344116 
	C7.059381,202.992630 6.895041,201.868942 6.894298,200.745163 
	C6.878868,177.425858 6.841048,154.106354 6.963267,130.787689 
	C6.972528,129.020828 7.656588,126.778236 8.849977,125.569023 
	C25.696838,108.498657 42.684822,91.567551 59.650303,74.614403 
	C60.076572,74.188446 60.636147,73.895889 61.723503,73.120354 
	C61.723503,98.761757 61.723503,123.780396 61.723503,149.251907 
	C68.936386,149.251907 75.718277,149.251907 83.000175,149.251907 
z"/>
</svg>